<svg t="1692061105491" class="icon" viewBox="0 0 1024 1024" version="1.1" xmlns="http://www.w3.org/2000/svg" p-id="977" width="200" height="200"><path d="M896 426.666667H128c-23.466667 0-42.666667 19.2-42.666667 42.666666v221.44c0 8.533333 0.426667 17.066667 1.28 25.6 8.533333 131.413333 89.6 212.48 221.013334 221.013334 8.533333 0.853333 17.066667 1.28 25.6 1.28h357.546666c8.533333 0 17.066667-0.426667 25.6-1.28 131.413333-8.533333 212.48-89.6 221.013334-221.013334 0.853333-8.533333 1.28-17.066667 1.28-25.6V469.333333c0-23.466667-19.2-42.666667-42.666667-42.666666zM341.333333 689.066667c14.506667 21.333333 34.133333 38.826667 56.746667 50.346666 16.213333 7.68 22.613333 26.88 14.506667 43.093334-5.546667 11.093333-17.066667 17.493333-28.586667 17.493333-4.693333 0-9.813333-1.28-14.08-3.413333-33.28-16.213333-61.44-41.386667-81.493333-71.68-17.066667-25.6-17.066667-58.88 0-84.48 20.053333-30.293333 48.213333-55.466667 81.493333-71.68 15.786667-8.106667 34.986667-1.706667 42.666667 14.08 8.106667 16.213333 1.706667 35.413333-14.506667 43.093333-22.613333 11.52-42.24 29.013333-56.746667 50.346667-2.56 3.84-2.56 8.96 0 12.8z m403.2 35.84c-20.48 30.293333-48.64 55.466667-81.493333 71.68a31.658667 31.658667 0 0 1-42.666667-14.08 31.786667 31.786667 0 0 1 14.08-43.093334c23.04-11.52 42.666667-29.013333 56.746667-50.346666a10.24 10.24 0 0 0 0-12.8c-14.08-21.333333-33.706667-38.826667-56.746667-50.346667a31.786667 31.786667 0 0 1-14.08-43.093333c7.68-15.786667 26.88-22.186667 42.666667-14.08 32.853333 16.213333 61.013333 41.386667 81.493333 71.68 17.066667 25.6 17.066667 58.88 0 84.48zM938.666667 333.226667V341.333333c0 23.466667-19.2 42.666667-42.666667 42.666667L128 384.426667c-23.466667 0-42.666667-19.2-42.666667-42.666667v-8.533333c0-8.533333 0.426667-17.066667 1.28-25.6 8.533333-131.413333 89.6-212.48 221.013334-221.013334 8.533333-0.853333 17.066667-1.28 25.6-1.28h357.546666c8.533333 0 17.066667 0.426667 25.6 1.28 131.413333 8.533333 212.48 89.6 221.013334 221.013334 0.853333 8.533333 1.28 17.066667 1.28 25.6z" fill="#ffffff" p-id="978"></path></svg>